<svg width="50" height="50" version="1.1" viewBox="0 0 512 512" xmlns="http://www.w3.org/2000/svg">
    <path d="m75.957 113.4c-9.6758 17.199-15.047 35.828-16.125 57.328h392.69c-1.4336-21.496-6.8086-40.129-16.48-57.328-10.75-19.348-27.23-36.902-49.445-54.102h-261.2c-22.215 17.199-38.695 34.754-49.445 54.102zm-19.348-10.75m-19.348 68.074c1.4336-25.438 7.8828-47.652 19.348-68.074 8.5977-15.406 20.062-29.738 34.754-43.352h-11.465c-33.32 13.258-53.387 28.305-64.852 47.293-10.391 16.84-13.973 37.98-15.047 64.133zm0 281.98v-259.76h-37.262v259.76zm266.93-211.39v-48.371h-96.383v48.371c0 13.258 5.375 25.082 14.332 34.039 8.5977 8.5977 20.781 13.973 34.039 13.973 13.258 0 25.082-5.375 34.039-13.973 8.5977-8.957 13.973-20.781 13.973-34.039zm-48.012-22.574c12.184 0 22.215 10.031 22.215 22.574 0 12.184-10.031 22.215-22.215 22.215-12.539 0-22.215-10.031-22.215-22.215 0-12.539 9.6758-22.574 22.215-22.574zm196.7 233.96v-259.76h-126.48v48.371c0 19.348-7.8828 36.902-20.422 49.801-12.898 12.539-30.453 20.422-49.801 20.422s-37.262-7.8828-49.801-20.422c-12.898-12.898-20.781-30.453-20.781-49.801v-48.371h-126.12v259.76h393.41zm59.117-259.76h-36.902v259.76h36.902zm-56.25-90.289c11.105 20.422 17.555 42.637 18.988 68.074h37.262c-0.71484-26.156-4.6562-47.293-15.047-64.133-11.465-18.988-31.172-34.039-64.492-47.293h-11.465c14.332 13.613 25.797 27.945 34.754 43.352z" fill-rule="evenodd"/>
</svg>