<svg width="50" height="50" version="1.1" viewBox="0 0 512 512" xmlns="http://www.w3.org/2000/svg">
    <path d="m265.48 227.55c0 5.2383-4.2422 9.4805-9.4805 9.4805s-9.4805-4.2422-9.4805-9.4805c0-5.2344 4.2422-9.4805 9.4805-9.4805s9.4805 4.2461 9.4805 9.4805"/>
    <path d="m189.63 170.67v75.852c0 26.141 21.27 47.406 47.406 47.406h37.926c26.141 0 47.406-21.27 47.406-47.406v-75.852c0-5.2344-4.2422-9.4805-9.4805-9.4805l-113.78-0.003906c-5.2383 0-9.4805 4.2461-9.4805 9.4844zm66.371 28.441c15.684 0 28.445 12.758 28.445 28.445 0 15.684-12.758 28.445-28.445 28.445-15.684 0-28.445-12.758-28.445-28.445 0-15.684 12.762-28.445 28.445-28.445z"/>
    <path d="m474.07 199.11h-132.74v37.926h113.78c5.2422 0 9.4805 4.2461 9.4805 9.4805v208.59c0 5.2344-4.2422 9.4805-9.4805 9.4805l-398.22 0.003906c-5.2422 0-9.4805-4.2461-9.4805-9.4805l-0.003906-208.59c0-5.2344 4.2422-9.4805 9.4805-9.4805h113.78v-37.926l-132.74-0.003906c-15.684 0-28.445 12.758-28.445 28.445v246.52c0 15.684 12.758 28.445 28.445 28.445h436.15c15.684 0 28.445-12.758 28.445-28.445v-246.52c0-15.684-12.762-28.445-28.445-28.445z"/>
    <path d="m66.371 322.37h379.26v56.891h-379.26z"/>
    <path d="m66.371 398.22h379.26v47.406h-379.26z"/>
    <path d="m66.371 256v47.406h136.66c-16.762-10.059-28.703-27.266-31.605-47.406z"/>
    <path d="m445.63 256h-105.05c-2.9023 20.141-14.844 37.348-31.605 47.406h136.66z"/>
    <path d="m108.28 180.15h14.98v-9.4805h-16.875z"/>
    <path d="m243.96 132.29 7.2461 4.832 1.6445-11.5z"/>
    <path d="m151.7 159.94-9.4805 6.3203v13.891h9.4805z"/>
    <path d="m108.82 151.7h9.9141l-4.957-12.395z"/>
    <path d="m133.04 136.39 4.168 10.422 6.25-4.168z"/>
    <path d="m354.98 180.15h12.145l1.6406-6.5703-11.242-11.242z"/>
    <path d="m391.38 155.61 18.414-7.3633-14.73-14.73z"/>
    <path d="m270.07 139.22 14.098-2.8203-11.984-11.988z"/>
    <path d="m427.18 180.15h44.234l19.879-86.137c-2.5 0.51953-5.082 0.80469-7.7344 0.80469h-455.11c-2.6484 0-5.2344-0.28125-7.7305-0.80078l19.875 86.133h48.348l-3.4219-17.102c-0.35938-1.8047-0.19531-3.6758 0.49219-5.3828l18.965-47.406c1.0352-2.5781 3.1484-4.5742 5.7773-5.4648 2.6484-0.89453 5.5273-0.57812 7.9062 0.85547l47.406 28.445c2.8555 1.7109 4.6055 4.8008 4.6055 8.1289v28.445c0-15.684 12.758-28.445 28.445-28.445h18.965v-9.4805c0-2.9844 1.4062-5.7969 3.7969-7.582l37.926-28.445c3.7695-2.8281 9.0547-2.457 12.391 0.87891l37.926 37.926c1.8242 1.8281 2.6602 4.2578 2.6602 6.7031h0.11328c11.562 0 21.488 6.957 25.934 16.883l2.6055-18.223c0.35937-2.4844 1.6836-4.7344 3.7031-6.2422l37.926-28.445c3.7578-2.8281 9.0547-2.457 12.391 0.87891l37.926 37.926c2.5352 2.5352 3.4258 6.2969 2.2852 9.7031z"/>
    <path d="m386.64 180.15h20.555l4.0117-12.047-23.953 9.582z"/>
    <path d="m375.52 135.55-10.266 7.6992 7.707 7.7031z"/>
    <path d="m28.445 75.852h455.11c10.453 0 18.965-8.5039 18.965-18.965 0-10.457-8.5078-18.965-18.965-18.965l-455.11 0.003906c-10.453 0-18.965 8.5039-18.965 18.965 0 10.457 8.5117 18.961 18.965 18.961z"/>
    <path d="m483.55 18.965c2.4805 0 4.8945 0.27734 7.2422 0.73047-3.1758-6.0391-9.4414-10.215-16.723-10.215h-436.15c-7.2812 0-13.547 4.1758-16.723 10.215 2.3477-0.45703 4.7617-0.73047 7.2422-0.73047z"/>
</svg>
