<svg width="50" height="50"  version="1.1" viewBox="0 0 512 512" xmlns="http://www.w3.org/2000/svg">
    <path d="m28.445 161.18h142.22v-28.445c0-3.3398 0.68359-6.5 1.7461-9.4805h-143.97c-10.457 0-18.965 8.5039-18.965 18.965 0 10.457 8.5039 18.961 18.965 18.961z"/>
    <path d="m339.59 123.26c1.0625 2.9805 1.7461 6.1406 1.7461 9.4844v28.445h142.22c10.457 0 18.965-8.5039 18.965-18.965 0-10.457-8.5039-18.965-18.965-18.965z"/>
    <path d="m66.371 360.3h379.26v47.406h-379.26z"/>
    <path d="m66.371 218.07v47.406h136.66c-16.762-10.059-28.703-27.266-31.602-47.406z"/>
    <path d="m66.371 284.45h379.26v56.891h-379.26z"/>
    <path d="m445.63 218.07h-105.05c-2.9023 20.141-14.844 37.348-31.602 47.406h136.65z"/>
    <path d="m483.55 180.15h-142.22v18.965h113.78c5.2344 0 9.4805 4.2461 9.4805 9.4805v208.59c0 5.2344-4.2461 9.4805-9.4805 9.4805h-398.22c-5.2344 0-9.4805-4.2461-9.4805-9.4805l-0.003906-208.59c0-5.2344 4.2461-9.4805 9.4805-9.4805h113.78v-18.965h-159.26c-1.1133 2.9844-1.9258 6.1094-1.9258 9.4805v246.52c0 15.684 12.758 28.445 28.445 28.445h436.15c15.684 0 28.445-12.758 28.445-28.445v-246.52c0-3.3711-0.8125-6.4961-1.9258-9.4805z"/>
    <path d="m265.48 189.63c0 5.2383-4.2422 9.4805-9.4805 9.4805s-9.4805-4.2422-9.4805-9.4805c0-5.2344 4.2422-9.4805 9.4805-9.4805s9.4805 4.2461 9.4805 9.4805"/>
    <path d="m237.04 256h37.926c26.141 0 47.406-21.27 47.406-47.406v-75.852c0-5.2344-4.2461-9.4805-9.4805-9.4805l-113.78-0.003907c-5.2344 0-9.4805 4.2461-9.4805 9.4805v75.852c0 26.141 21.27 47.41 47.406 47.41zm18.965-94.816c15.684 0 28.445 12.758 28.445 28.445 0 15.684-12.758 28.445-28.445 28.445-15.684 0-28.445-12.758-28.445-28.445 0-15.684 12.762-28.445 28.445-28.445z"/>
    <path d="m483.55 104.3h8.7266c-4.4688-32.105-31.113-56.891-63.34-56.891h-345.89c-32.223 0-58.871 24.781-63.336 56.891z"/>
</svg>
