<svg width="50" height="50" version="1.1" viewBox="0 0 512 512" xmlns="http://www.w3.org/2000/svg">
    <path d="m463 441.73c12.914-12.914 30.008-21.648 48.996-24.309v-97.613c-18.992-2.6602-36.082-11.395-48.996-24.688-12.914-12.914-22.031-30.008-24.309-48.996h-112.05v48.238c0 19.371-7.9766 37.223-20.891 49.758-12.535 12.914-30.387 20.891-49.758 20.891s-36.844-7.9766-49.758-20.891c-12.914-12.535-20.891-30.387-20.891-49.758v-48.238h-112.05c-2.2773 18.992-11.016 36.082-24.309 48.996-12.914 13.293-30.008 22.031-48.996 24.688v97.613c18.992 2.6602 36.082 11.395 48.996 24.309 13.293 13.293 22.031 30.387 24.309 49.375h365.39c2.2773-18.992 11.395-36.082 24.309-49.375zm-147.75-218.02h177.38c-23.168-16.332-52.035-29.625-83.18-39.883-48.996-15.574-104.07-23.168-153.45-23.168-49.375 0-104.45 7.5977-153.45 23.168-31.145 10.254-60.012 23.551-83.18 39.883h295.88zm163.32 233.97c-8.7344 8.7344-15.191 20.512-17.473 33.426h50.895v-50.895c-12.914 2.2773-24.309 8.3555-33.426 17.473zm-445.15 0c-9.1172-9.1172-20.512-15.191-33.426-17.473v50.895h50.895c-2.2773-12.914-8.7344-24.688-17.473-33.426zm174.34-211.56v48.238c0 13.293 5.3164 25.449 14.055 34.184 8.7344 8.7344 20.891 14.055 34.184 14.055 13.293 0 25.449-5.3164 34.184-14.055 8.7344-8.7344 14.055-20.891 14.055-34.184v-48.238zm48.238 25.828c12.156 0 22.41 10.254 22.41 22.41s-10.254 22.41-22.41 22.41-22.41-10.254-22.41-22.41 10.254-22.41 22.41-22.41zm-222.57 7.5977c8.7344-8.7344 15.191-20.512 17.473-33.426h-50.895v50.895c12.914-2.2773 24.309-8.3555 33.426-17.473zm427.68-33.426c2.2773 12.914 8.7344 24.688 17.473 33.426 9.1172 9.1172 20.512 15.191 33.426 17.473v-50.895h-50.895zm-460.72-158.39h511.24c-1.5195-15.953-6.8359-29.625-15.574-40.641-9.875-12.535-24.688-21.648-45.199-26.207h-389.7c-20.512 4.5586-35.324 13.672-45.199 26.207-8.7344 11.016-14.055 24.688-15.574 40.641zm460.72 92.297 42.16-70.266h-494.91l42.16 70.648c14.812-6.8359 30.008-12.535 45.578-17.473 50.516-16.332 106.73-24.309 159.91-24.309 53.176 0 109.39 7.9766 159.91 24.309 15.191 4.5586 30.387 10.254 45.199 17.094zm-249.54 236.63h88.879c6.0781 0 11.395 4.9375 11.395 11.016s-5.3164 11.395-11.395 11.395h-88.879c-6.0781 0-11.395-5.3164-11.395-11.395s5.3164-11.016 11.395-11.016z" fill-rule="evenodd"/>
</svg>