<svg width="70" height="70" version="1.1" viewBox="0 0 512 512" xmlns="http://www.w3.org/2000/svg">
 <path d="m114.18 378.36v42.5c0 2.5586 2.0391 5.1211 5.1211 5.1211 3.0781 0 5.1211-2.0391 5.1211-5.1211v-44.539c0-1.5391-0.51953-2.5586-1.5391-3.5781l-58.879-60.422c-2.0391-2.0391-3.0781-4.6016-3.0781-7.6797 0-1.5391 0.51953-4.1016 2.5586-5.6406 4.6016-3.5781 10.238-2.0391 13.82 1.5391 5.1211 5.1211 9.2188 9.2188 12.801 13.32 6.1406 6.6602 11.262 11.781 18.941 18.441 10.762 9.7188 27.141 14.84 43.52 15.359h8.2031c16.379-0.51953 32.262-5.6406 43-15.359 7.6797-6.6602 12.801-12.281 18.941-18.441 3.5781-3.5781 7.6797-8.1992 12.801-13.32 3.0781-3.5781 9.2188-5.1211 13.82-1.5391 2.0391 2.0391 2.5586 4.6016 2.5586 5.6406 0 3.0781-1.0195 5.6406-3.0781 7.6797l-59.359 60.422c-1.0195 1.0195-1.5391 2.0391-1.5391 3.5781v44.539c0 2.5586 2.0391 5.1211 5.1211 5.1211 2.5586 0 5.1211-2.0391 5.1211-5.1211v-42.5l56.844-58.879 1.0195-1.0195 1.0195 1.0195 56.844 58.879v42.5c0 2.5586 2.0391 5.1211 5.1211 5.1211 3.0781 0 5.1211-2.0391 5.1211-5.1211v-44.539c0-1.5391-0.51953-2.5586-1.5391-3.5781l-58.879-60.422c-2.0391-2.0391-3.0781-4.6016-3.0781-7.6797 0-1.5391 0.51953-4.1016 2.5586-5.6406 4.6016-3.5781 10.238-2.0391 13.82 1.5391 5.1211 5.1211 9.2188 9.2188 12.801 13.32 6.1406 6.6602 11.262 11.781 18.941 18.441 10.762 9.7188 27.141 14.84 43.52 15.359h8.2031c16.379-0.51953 32.262-5.6406 43-15.359 7.6797-6.6602 12.801-12.281 18.941-18.441 3.5781-3.5781 7.6797-8.1992 12.801-13.32 3.0781-3.5781 9.2188-5.1211 13.82-1.5391 2.0391 2.0391 2.5586 4.6016 2.5586 5.6406 0 3.0781-1.0195 5.6406-3.0781 7.6797l-58.84 60.422c-1.0195 1.0195-1.5391 2.0391-1.5391 3.5781v44.539c0 2.5586 2.0391 5.1211 5.1211 5.1211 3.0781 0 5.1211-2.0391 5.1211-5.1211v-42.5l56.844-58.879c4.1016-4.1016 6.1406-9.7188 5.6406-15.359 0-5.1211-2.5586-9.7188-6.1406-12.801-7.6797-6.6602-19.461-5.6406-27.141 2.0391-5.1211 5.1211-9.2188 9.2188-12.801 13.32-6.1406 6.6602-10.762 11.781-17.922 17.922-3.0781 2.5586-6.1406 4.6016-9.7188 6.6602 3.5781-5.6406 6.1406-12.281 6.1406-19.961 0-19.961-16.379-36.359-36.359-36.359-19.961 0-36.359 16.379-36.359 36.359 0 7.1602 2.0391 14.34 6.1406 19.961-4.1016-2.0391-7.1602-4.1016-10.238-6.6602-7.1602-6.1406-12.281-11.262-17.922-17.922-3.5781-4.1016-7.6797-8.1992-12.801-13.32-7.6797-7.6797-19.461-8.6992-27.141-2.0391-0.51953 0.51953-1.0195 1.0195-1.0195 1.0195-0.51953-0.51953-1.0195-1.0195-1.0195-1.5391-7.6797-6.6602-19.461-5.6406-27.141 2.0391-5.1211 5.1211-9.2188 9.2188-12.801 13.32-6.1406 6.6602-10.762 11.781-17.922 17.922-3.0781 2.5586-6.1406 4.6016-9.7188 6.6602 3.5781-5.6406 6.1406-12.281 6.1406-19.961 0-19.961-16.379-36.359-36.359-36.359-19.961 0-36.359 16.379-36.359 36.359 0 7.1602 2.0391 14.34 6.1406 19.961-4.1016-2.0391-7.1602-4.1016-10.238-6.6602-7.1602-6.1406-12.281-11.262-17.922-17.922-3.5781-4.1016-7.6797-8.1992-12.801-13.32-7.6797-7.6797-19.461-8.6992-27.141-2.0391-3.5781 3.0781-6.1406 7.6797-6.1406 12.801 0 5.6406 2.0391 11.262 5.6406 15.359zm241.66-93.68c14.34 0 26.621 11.781 26.621 26.621 0 14.34-11.781 26.121-26.121 26.621-14.34 0-26.121-11.781-26.121-26.621-0.5-14.859 11.281-26.621 25.621-26.621zm-199.68 0c14.34 0 26.621 11.781 26.621 26.621 0 14.34-11.781 26.121-26.121 26.621-14.34 0-26.121-11.781-26.121-26.621-0.5-14.859 11.281-26.621 25.621-26.621z"/>
 <path d="m157.18 187.4c-3.5781 3.0781-6.1406 7.6797-6.1406 12.801 0 5.6406 2.0391 11.262 5.6406 14.84l56.844 58.879v8.6992c0 2.5586 2.0391 5.1211 5.1211 5.1211 2.5586 0 5.1211-2.0391 5.1211-5.1211v-10.762c0-1.5391-0.51953-2.5586-1.5391-3.5781l-58.379-59.898c-2.0391-2.0391-3.0781-4.6016-3.0781-7.6797 0-1.5391 0.51953-4.1016 2.5586-5.6406 4.6016-3.5781 10.238-2.0391 13.82 1.5391 5.1211 5.1211 8.6992 9.2188 12.281 12.801 6.1406 6.6602 11.262 12.281 18.941 18.941 10.238 9.2188 25.602 14.34 43 15.359 1.5391 0 3.0781 0.51953 4.6016 0.51953 1.5391 0 3.0781 0 4.6016-0.51953 17.398-1.0195 32.262-6.1406 42.5-15.359 7.6797-6.6602 12.801-12.281 18.941-18.941 3.5781-3.5781 7.1602-7.6797 12.281-12.801 3.0781-3.5781 9.2188-5.1211 13.82-1.5391 2.0391 2.0391 2.5586 4.6016 2.5586 5.6406 0 3.0781-1.0195 5.6406-3.0781 7.6797l-57.777 60.422c-1.0195 1.0195-1.5391 2.0391-1.5391 3.5781v10.762c0 2.5586 2.0391 5.1211 5.1211 5.1211 2.5586 0 5.1211-2.0391 5.1211-5.1211v-8.6992l56.844-58.879c4.1016-4.1016 6.1406-9.7188 5.6406-15.359 0-5.1211-2.5586-9.7188-6.1406-12.801-7.6797-6.6602-19.461-5.6406-27.141 2.0391-5.1211 5.1211-8.6992 9.2188-12.281 12.801-6.1406 6.6602-11.262 11.781-18.441 18.441-2.5586 2.5586-6.1406 4.6016-9.7188 6.1406 3.5781-5.6406 5.6406-12.281 5.6406-19.961 0-19.961-16.379-36.359-36.359-36.359-19.961 0-36.359 16.379-36.359 36.359 0 7.1602 2.0391 14.34 6.1406 19.961-4.1016-2.0391-7.6797-4.1016-10.238-6.6602-7.1602-6.6602-12.281-11.781-18.441-18.441-4.1016-3.0586-8.1992-7.1602-13.32-12.281-7.6797-7.6797-18.941-8.1992-27.141-2.0391zm98.82-6.1602c14.34 0 26.621 11.781 26.621 26.621 0 13.82-10.238 24.582-23.559 26.121h-5.1211c-13.32-1.5391-23.559-12.281-23.559-26.121-0.5-14.84 11.281-26.621 25.621-26.621z"/>
 <path d="m256 132.1c2.5586 0 5.1211-2.0391 5.1211-5.1211v-35.84c0-2.5586-2.0391-5.1211-5.1211-5.1211-3.0781 0-5.1211 2.0391-5.1211 5.1211v35.84c0 3.0586 2.5586 5.1211 5.1211 5.1211z"/>
 <path d="m165.88 152.58c1.0195 1.5391 2.5586 2.5586 4.1016 2.5586 1.0195 0 1.5391 0 2.5586-0.51953 2.5586-1.5391 3.0781-4.6016 2.0391-6.6602l-17.922-31.238c-1.5391-2.5586-4.6016-3.0781-6.6602-2.0391-2.5586 1.5391-3.0781 4.6016-2.0391 6.6602z"/>
 <path d="m74.238 199.16 31.238 17.922c1.0195 0.51953 1.5391 0.51953 2.5586 0.51953 1.5391 0 3.5781-1.0195 4.1016-2.5586 1.5391-2.5586 0.51953-5.6406-2.0391-6.6602l-31.238-17.922c-2.5586-1.5391-5.6406-0.51953-6.6602 2.0391-1.0391 2.0586-0.51953 5.1406 2.0391 6.6602z"/>
 <path d="m403.96 217.6c1.0195 0 1.5391 0 2.5586-0.51953l31.238-17.922c2.5586-1.5391 3.0781-4.6016 2.0391-6.6602-1.5391-2.5586-4.6016-3.0781-6.6602-2.0391l-31.238 17.922c-2.5586 1.5391-3.0781 4.6016-2.0391 6.6602 1.0391 2.0391 2.5781 2.5586 4.1016 2.5586z"/>
 <path d="m338.94 154.62c1.0195 0.51953 1.5391 0.51953 2.5586 0.51953 1.5391 0 3.5781-1.0195 4.1016-2.5586l17.922-31.238c1.5391-2.5586 0.51953-5.6406-2.0391-6.6602-2.5586-1.5391-5.6406-0.51953-6.6602 2.0391l-17.922 31.238c-1.0195 2.0586 0 5.1211 2.0391 6.6602z"/>
</svg>
