<svg width="50" height="50" version="1.1" viewBox="0 0 512 512" xmlns="http://www.w3.org/2000/svg">
    <path d="m104.99 292.25h-11.809c-0.25 0-0.48828 0.10938-0.66016 0.27734-0.17578 0.16797-0.28125 0.39844-0.28125 0.64844v47.832c0 0.25 0.10937 0.48047 0.28125 0.64844 0.17578 0.16797 0.41016 0.27734 0.66016 0.27734h11.809c0.25 0 0.48828-0.10938 0.66016-0.27734 0.17578-0.16797 0.28125-0.39844 0.28125-0.64844v-47.832c0-0.25-0.10938-0.48047-0.28125-0.64844-0.17578-0.16797-0.41016-0.27734-0.66016-0.27734zm0-121.51h-11.809c-0.25 0-0.48828 0.10938-0.66016 0.27734-0.17578 0.16797-0.28125 0.39844-0.28125 0.64844v47.832c0 0.25 0.10937 0.48047 0.28125 0.64844 0.17578 0.16797 0.41016 0.27734 0.66016 0.27734h11.809c0.25 0 0.48828-0.10938 0.66016-0.27734 0.17578-0.16797 0.28125-0.39844 0.28125-0.64844v-47.832c0-0.25-0.10938-0.48047-0.28125-0.64844-0.17578-0.16797-0.41016-0.27734-0.66016-0.27734zm-0.28516 232.26v-49.988h0.28516c3.3555 0 6.3984-1.3477 8.6016-3.5234 2.2031-2.1719 3.5742-5.1719 3.5742-8.4805v-47.832c0-3.3086-1.3672-6.3086-3.5742-8.4805-2.2031-2.1719-5.2461-3.5234-8.6016-3.5234h-0.28516v-49.684h0.28516c3.3555 0 6.3984-1.3477 8.6016-3.5234 2.2031-2.1719 3.5742-5.1719 3.5742-8.4805v-47.832c0-3.3086-1.3672-6.3086-3.5742-8.4805-2.2031-2.1719-5.2461-3.5234-8.6016-3.5234h-0.28516v-49.988l140.93-25.754v344.8l-140.93-25.727zm168.51-321.79h-16.062c-0.070313 0-0.14453 0.03125-0.19531 0.085937-0.050781 0.050782-0.085937 0.11719-0.085937 0.1875v349.04c0 0.078125 0.035156 0.14453 0.085937 0.19531 0.054688 0.050781 0.12109 0.085938 0.19531 0.085938h16.062c0.070312 0 0.14453-0.035157 0.19531-0.085938 0.054688-0.050781 0.085938-0.12109 0.085938-0.19531v-349.03c0-0.070313-0.035156-0.13672-0.085938-0.19531-0.054687-0.050781-0.12109-0.085937-0.19531-0.085937zm11.52 29.418v23.27h135.73c3.1016 0 5.6172 2.4766 5.6172 5.5352v233.8c0 3.0547-2.5156 5.5352-5.6172 5.5352h-135.73v23.27h150.11c3.3086 0 6.3164-1.3828 8.5039-3.6094 2.2422-2.2891 3.6367-5.4531 3.6367-8.9531l-0.003906-266.28c0-3.4961-1.3945-6.668-3.6367-8.9531-2.1875-2.2266-5.1953-3.6094-8.5039-3.6094h-150.11zm-122.21 127.95c-1.9805-3.293-4.4336-5.3242-6.8828-5.3242s-4.8984 2.0312-6.8828 5.3242c-2.5078 4.1641-4.0586 10.035-4.0586 16.621s1.5508 12.457 4.0586 16.621c1.9805 3.293 4.4336 5.3242 6.8828 5.3242s4.8984-2.0312 6.8828-5.3242c2.5078-4.1641 4.0586-10.035 4.0586-16.621s-1.5508-12.457-4.0586-16.621zm-1.125 57.988-0.035157-9.3984c4.2852-1.6211 7.9961-5.0469 10.812-9.7227 2.7344-4.5352 4.6484-10.359 5.3438-16.805l3.043-0.011718c3.0938 0 5.5977-2.4688 5.5977-5.5156 0-3.0469-2.5039-5.5156-5.5977-5.5156l-3.0547 0.011718c-0.71094-6.3828-2.6172-12.156-5.3281-16.656-2.8711-4.7656-6.6758-8.2344-11.062-9.8164l-0.035157-9.3086c0-3.0469-2.5039-5.5156-5.5977-5.5156s-5.5977 2.4688-5.5977 5.5156l0.035156 9.3984c-4.2812 1.6211-7.9961 5.0469-10.812 9.7227-2.7344 4.5352-4.6484 10.359-5.3438 16.805l-3.043 0.011718c-3.0938 0-5.5977 2.4688-5.5977 5.5156s2.5039 5.5156 5.5977 5.5156l3.0547-0.011718c0.71094 6.3828 2.6211 12.156 5.3281 16.656 2.8711 4.7656 6.6758 8.2344 11.062 9.8164l0.035156 9.3086c0 3.0469 2.5039 5.5156 5.5977 5.5156s5.5977-2.4688 5.5977-5.5156zm60.16-89.477h-3.9336c-0.79297 0-1.5195 0.32422-2.0469 0.84375-0.52734 0.52344-0.85938 1.2383-0.85938 2.0234v84.023c0 0.78516 0.32812 1.5 0.85938 2.0234 0.52734 0.52344 1.2539 0.84375 2.0469 0.84375h3.9336c0.79297 0 1.5195-0.32422 2.0469-0.84375 0.52734-0.52344 0.85938-1.2383 0.85938-2.0234v-84.023c0-0.78516-0.32812-1.5-0.85938-2.0234s-1.2539-0.84375-2.0469-0.84375zm-3.9336-11.07c-3.8945 0-7.4336 1.5664-9.9961 4.0898-2.5586 2.5234-4.1523 6.0117-4.1523 9.8516v84.023c0 3.8398 1.5859 7.3281 4.1523 9.8516 2.5586 2.5234 6.0977 4.0898 9.9961 4.0898h3.9336c3.8945 0 7.4336-1.5664 9.9961-4.0898 2.5586-2.5234 4.1523-6.0117 4.1523-9.8516v-84.023c0-3.8398-1.5859-7.3281-4.1523-9.8516-2.5586-2.5234-6.0977-4.0898-9.9961-4.0898zm167.86 154.97v16.723h-71.402v-16.723zm-14.109-27.793v16.723h-71.402v-16.723zm17.711-27.793v16.723h-71.402v-16.723zm-17.055-27.793v16.723h-71.402v-16.723zm20.004-27.793v16.723h-71.402v-16.723zm-77.02-11.07c-3.1016 0-5.6172 2.4766-5.6172 5.5352v22.258h-14.387c-3.1016 0-5.6172 2.4766-5.6172 5.5352v27.793c0 3.0547 2.5156 5.5352 5.6172 5.5352h11.438v16.723h-12.094c-3.1016 0-5.6172 2.4766-5.6172 5.5352v27.793c0 3.0547 2.5156 5.5352 5.6172 5.5352h8.4922v16.723h-18.121l0.003906-222.73h130.11v222.73h-18.121v-22.258c0-3.0547-2.5156-5.5352-5.6172-5.5352h-8.4922v-16.723h12.094c3.1016 0 5.6172-2.4766 5.6172-5.5352v-27.793c0-3.0547-2.5156-5.5352-5.6172-5.5352h-11.438v-16.723h14.387c3.1016 0 5.6172-2.4766 5.6172-5.5352v-27.793c0-3.0547-2.5156-5.5352-5.6172-5.5352zm-221.54-69.074h-0.28516c-3.3555 0-6.3984 1.3477-8.6016 3.5234-2.2031 2.1719-3.5742 5.1719-3.5742 8.4805v47.832c0 3.3086 1.3672 6.3086 3.5742 8.4805 2.207 2.1719 5.2461 3.5234 8.6016 3.5234h0.28516v49.684h-0.28516c-3.3555 0-6.3984 1.3477-8.6016 3.5234-2.2031 2.1758-3.5742 5.1719-3.5742 8.4805v47.832c0 3.3086 1.3672 6.3086 3.5742 8.4805 2.207 2.1719 5.2461 3.5234 8.6016 3.5234h0.28516v49.039h-16.312c-3.3086 0-6.3164-1.3828-8.5039-3.6094-2.2422-2.2891-3.6367-5.4531-3.6367-8.9531v-266.32c0-3.4961 1.3945-6.668 3.6367-8.9531 2.1875-2.2266 5.1953-3.6094 8.5039-3.6094h16.312z" fill-rule="evenodd"/>
</svg>
