<svg width="50" height="50"  version="1.1" viewBox="0 0 512 512" xmlns="http://www.w3.org/2000/svg">
  <path d="m418.47 68.465h-324.94c-7.832 0-14.965 3.1641-20.133 8.2578-5.1719 5.0938-8.3828 12.117-8.3828 19.84v278.51c0 7.7227 3.2109 14.746 8.3828 19.84 5.1719 5.0938 12.297 8.2578 20.133 8.2578h324.94c7.832 0 14.965-3.1641 20.133-8.2578 5.1719-5.0938 8.3828-12.117 8.3828-19.84l-0.003906-278.51c0-7.7227-3.2109-14.746-8.3828-19.84s-12.297-8.2578-20.133-8.2578zm-314.02 59.875c2.9531 0 5.6484 1.1914 7.5977 3.125 1.957 1.9258 3.168 4.5781 3.168 7.4922v43.055c0 2.9141-1.2148 5.5664-3.168 7.4922-1.957 1.9258-4.6445 3.125-7.5977 3.125s-5.6484-1.1992-7.5977-3.125c-1.957-1.9258-3.168-4.5781-3.168-7.4922v-43.055c0-2.9141 1.2148-5.5664 3.168-7.4922 1.957-1.9258 4.6445-3.125 7.5977-3.125zm0 150.69c2.9531 0 5.6484 1.1992 7.5977 3.125 1.957 1.9258 3.168 4.5781 3.168 7.4922v43.055c0 2.9141-1.2148 5.5664-3.168 7.4922-1.957 1.9258-4.6445 3.125-7.5977 3.125s-5.6484-1.1914-7.5977-3.125c-1.9492-1.9297-3.168-4.5781-3.168-7.4922v-43.055c0-2.9141 1.2148-5.5664 3.168-7.4922 1.957-1.9258 4.6445-3.125 7.5977-3.125zm-5.6172 74.629c-3.8086-0.99219-7.2188-2.9766-9.9258-5.6484-3.9844-3.9258-6.457-9.3477-6.457-15.32v-43.055c0-5.9688 2.4727-11.391 6.457-15.32 2.707-2.668 6.1172-4.6484 9.9258-5.6484v-65.715c-3.8086-0.99219-7.2188-2.9766-9.9258-5.6484-3.9844-3.9258-6.457-9.3477-6.457-15.32v-43.055c0-5.9688 2.4727-11.391 6.457-15.32 2.707-2.668 6.1172-4.6484 9.9258-5.6484v-18.055c0-3.0547 2.5156-5.5352 5.6172-5.5352h303.09c3.1016 0 5.6172 2.4766 5.6172 5.5352v271.78c0 3.0547-2.5156 5.5352-5.6172 5.5352l-303.09 0.007813c-3.1016 0-5.6172-2.4766-5.6172-5.5352v-18.055zm11.234-84.977v-65.715c3.8086-0.99219 7.2188-2.9766 9.9258-5.6484 3.9844-3.9258 6.457-9.3477 6.457-15.32v-43.055c0-5.9688-2.4727-11.391-6.457-15.32-2.707-2.668-6.1172-4.6484-9.9258-5.6484v-12.52h291.86v260.71l-291.86 0.003906v-12.52c3.8086-0.99219 7.2188-2.9766 9.9258-5.6484 3.9844-3.9258 6.457-9.3477 6.457-15.32v-43.055c0-5.9688-2.4727-11.391-6.457-15.32-2.707-2.668-6.1172-4.6484-9.9258-5.6484zm207.94 35.969 6.8203 30.172c0.12891 0.49219 0.1875 1.0039 0.17578 1.5352-0.085937 3.0469-2.6562 5.4492-5.75 5.3594l-29.254-0.83594c-0.37891 0.003907-0.76172-0.027343-1.1484-0.09375-3.043-0.5625-5.043-3.4453-4.4766-6.4453l5.5039-28.441c-2.0078-1.5469-3.7227-3.4258-5.0703-5.5547-2.0625-3.2773-3.2578-7.1289-3.2578-11.238 0-5.8867 2.4219-11.219 6.3398-15.078s9.3242-6.2461 15.297-6.2461c5.9766 0 11.383 2.3867 15.297 6.2461 3.918 3.8594 6.3398 9.1914 6.3398 15.078 0 3.7031-0.96875 7.1992-2.6719 10.254-1.1016 1.9727-2.5039 3.7539-4.1523 5.2773zm-21.387 25.387 4.9609-25.625c0.078125-0.36328 0.11719-0.73828 0.12109-1.1016v-0.11719-0.003906c-0.011719-0.76172-0.18359-1.5-0.49219-2.1758v-0.015625s-0.046876-0.082031-0.046876-0.082031l-0.027343-0.054688-0.027344-0.050781-0.035156-0.070312-0.019531-0.035157-0.050782-0.09375c-0.36328-0.64844-0.85938-1.2344-1.4727-1.6992h-0.003906l-0.097656-0.078124c-0.28516-0.21094-0.59766-0.39453-0.92578-0.54688-1.7031-0.85156-3.1484-2.1602-4.1641-3.7695-0.97656-1.5547-1.5469-3.4062-1.5469-5.3945 0-2.832 1.1641-5.3945 3.0469-7.25 1.8828-1.8516 4.4844-3 7.3594-3 2.8711 0 5.4727 1.1484 7.3594 3 1.8828 1.8516 3.0469 4.418 3.0469 7.25 0 1.8008-0.46094 3.4883-1.2695 4.9375-0.84375 1.5156-2.0742 2.8008-3.5586 3.7266-2.1875 1.3672-3.0859 3.9766-2.3555 6.3008l5.9688 26.402-15.766-0.44922zm-87.219-157.77c17.199 0 32.77 6.8711 44.039 17.977 11.27 11.105 18.242 26.449 18.242 43.398 0 16.945-6.9688 32.293-18.242 43.398-11.27 11.105-26.84 17.977-44.039 17.977-17.199 0-32.762-6.8711-44.039-17.977-11.27-11.105-18.242-26.449-18.242-43.398 0-16.945 6.9688-32.293 18.242-43.398 11.27-11.105 26.84-17.977 44.039-17.977zm23.352 38.359c5.9766 5.8867 9.6719 14.027 9.6719 23.016 0 8.9922-3.6953 17.125-9.6719 23.016-5.9766 5.8867-14.234 9.5352-23.352 9.5352-9.1172 0-17.379-3.6445-23.352-9.5352-5.9766-5.8867-9.6719-14.027-9.6719-23.016 0-8.9922 3.6953-17.125 9.6719-23.016 5.9766-5.8867 14.234-9.5352 23.352-9.5352 9.1172 0 17.379 3.6445 23.352 9.5352zm-50.34-11.562-4.8125-4.7734c7.3477-5.7734 16.344-9.5898 26.184-10.656v6.7266c-7.9805 1-15.297 4.0859-21.371 8.6992zm-16.922 29.039h-6.8242c1.0898-9.793 5.0312-18.746 10.988-26.023l4.8125 4.7734c-4.7617 6.0195-7.957 13.301-8.9805 21.254zm8.0938 31.176-4.9727 4.6133c-5.375-7.0312-8.9297-15.5-9.9531-24.715h6.8242c0.95703 7.4492 3.8242 14.316 8.0938 20.102zm30.191 17.633v6.7266c-10.43-1.125-19.91-5.3438-27.484-11.711l4.9727-4.6133c6.2891 5.1055 14.023 8.5352 22.512 9.5938zm32.605-8.6992 4.8125 4.7734c-7.3477 5.7734-16.344 9.5898-26.184 10.656v-6.7266c7.9805-1 15.297-4.0859 21.371-8.6992zm16.922-29.039h6.8242c-1.0898 9.793-5.0312 18.746-10.988 26.023l-4.8125-4.7734c4.7617-6.0195 7.957-13.301 8.9766-21.254zm-8.0938-31.176 4.9727-4.6133c5.375 7.0312 8.9297 15.5 9.9531 24.715h-6.8242c-0.95703-7.4492-3.8242-14.316-8.0938-20.102zm-30.191-17.633v-6.7266c10.43 1.125 19.91 5.3438 27.484 11.711l-4.9727 4.6133c-6.2891-5.1055-14.023-8.5352-22.512-9.5938zm151.73-8.207c1.5938 0 3.0469 0.64453 4.1016 1.6914 1.0547 1.0391 1.7148 2.4727 1.7148 4.043v90.48c0 1.5703-0.65625 3-1.7148 4.043-1.0586 1.043-2.5078 1.6914-4.1055 1.6914s-3.0469-0.64453-4.1016-1.6914c-1.0547-1.0391-1.7148-2.4727-1.7148-4.043v-90.48c0-1.5703 0.65625-3.0039 1.7148-4.043 1.0547-1.0391 2.5078-1.6914 4.1055-1.6914zm0-11.07c4.6953 0 8.9609 1.8906 12.047 4.9297 3.0859 3.043 5.0039 7.2461 5.0039 11.875v90.48c0 4.6289-1.9141 8.8281-5.0039 11.875-3.0859 3.043-7.3516 4.9297-12.047 4.9297s-8.9609-1.8906-12.047-4.9297c-3.0859-3.043-5.0039-7.2461-5.0039-11.875v-90.48c0-4.6289 1.9141-8.8281 5.0039-11.875 3.0859-3.043 7.3516-4.9297 12.047-4.9297zm-145.25 50.621c3.0977 3.0508 5.0117 7.2695 5.0117 11.93s-1.9141 8.8789-5.0117 11.93c-3.0977 3.0508-7.3789 4.9414-12.105 4.9414-4.7266 0-9.0078-1.8906-12.105-4.9414-3.0977-3.0508-5.0117-7.2695-5.0117-11.93s1.9141-8.8789 5.0117-11.93c3.0977-3.0508 7.3789-4.9414 12.105-4.9414 4.7266 0 9.0078 1.8906 12.105 4.9414zm-12.105-16.012c7.8281 0 14.914 3.1289 20.051 8.1836 5.1289 5.0586 8.3047 12.043 8.3047 19.758s-3.1758 14.699-8.3047 19.758c-5.1289 5.0586-12.223 8.1836-20.051 8.1836-7.8281 0-14.914-3.1289-20.051-8.1836-5.1289-5.0586-8.3047-12.043-8.3047-19.758s3.1758-14.699 8.3047-19.758c5.1289-5.0586 12.223-8.1836 20.051-8.1836zm-66.883 208.55h-29.723v29.293h29.723zm258.04 0h-29.723v29.293h29.723z" fill-rule="evenodd"/>
</svg>