<svg width="50" height="50" version="1.1" viewBox="0 0 512 512" xmlns="http://www.w3.org/2000/svg">
    <path d="m495.45 51.926h-91.82l-73.645-41.473-2.4727-1.1953h-2.2188c-5.2891 0-9.5547 4.2656-9.5547 9.5586v7.5078h-68.266v25.602h-230.91c-9.1289 0-16.555 7.4219-16.555 16.555v376.41c0 9.2148 7.4258 16.637 16.555 16.637h0.51172v34.133h85.332v-34.133h145.07v25.602h68.266v6.1445c0 5.2891 4.2656 9.5586 9.5586 9.5586l2.7305-0.17188 73.047-41.133h8.5352v34.133h85.332v-34.133h0.51172c9.1289 0 16.555-7.4258 16.555-16.555v-376.49c0-9.1328-7.4258-16.555-16.555-16.555zm-410.11 426.67h-51.199v-17.066h51.199zm17.066-33.793v-0.34375h-85.332v0.51172l-0.51172-375.98h230.91v17.066h-193.28c-11.094 0-20.055 8.9609-20.055 20.055v301.22c0 11.098 8.9609 20.055 20.055 20.055h193.28v17.066zm145.07-256.34h-25.602v-76.801h-102.4l-51.199 0.003906v76.801l-17.066-0.003907v-82.348c0-1.6172 1.3672-2.9844 2.9883-2.9844h193.28zm-162.13 187.73h34.133v8.5352h-34.133zm34.133-17.066h-34.133v-8.5352h34.133zm-34.133 42.668h34.133v8.5352h-34.133zm51.203-51.199h17.066v59.734h-17.066zm34.133 25.598h34.133v8.5352h-34.133zm34.133-17.066h-34.133v-8.5352h34.133zm-34.133 42.668h34.133v8.5352h-34.133zm51.199-68.27h-153.6v76.801h-14.078c-1.6211 0-2.9883-1.3633-2.9883-2.9844v-90.883h196.27v93.867h-25.602zm-17.066-59.73h-34.133v-8.5352h34.133zm-34.133 17.066h34.133v8.5352h-34.133zm34.133-42.668h-34.133v-8.5352h34.133zm-51.199 51.199h-17.066v-59.734h17.066zm-68.27-34.133h34.133v8.5352h-34.133zm34.133-17.066h-34.133v-8.5352h34.133zm-34.133 42.668h34.133v8.5352h-34.133zm162.13 8.5312h-25.602v-76.801h-102.4l-51.199 0.003906v76.801l-17.066-0.003906v-93.867h196.27zm-42.664-136.53h-34.133v-8.5352h34.133zm-34.133 17.066h34.133v8.5352h-34.133zm34.133-42.668h-34.133v-8.5352h34.133zm-51.199 51.199h-17.066v-59.734h17.066zm-68.27-34.133h34.133v8.5352h-34.133zm34.133-17.066h-34.133v-8.5352h34.133zm-34.133 42.668h34.133v8.5352h-34.133zm179.2 290.13v-426.67h51.199v426.67zm68.266-438.36 36.012 20.223h-1.2812l84.734 47.617v29.184c-4.6914 0-8.5352 3.8398-8.5352 8.5352 0 4.6914 3.8398 8.5352 8.5352 8.5352v8.5352c-4.6914 0-8.5352 3.8398-8.5352 8.5352 0 4.6914 3.8398 8.5352 8.5352 8.5352v170.67c-4.6914 0-8.5352 3.8398-8.5352 8.5352 0 4.6914 3.8398 8.5352 8.5352 8.5352v8.5352c-4.6914 0-8.5352 3.8398-8.5352 8.5352 0 4.6914 3.8398 8.5352 8.5352 8.5352v28.414l-119.46 67.242zm145.07 446.89h-51.199v-17.066h51.199zm17.066-34.137h-62.207l36.605-20.648v-39.082h8.5352c4.6914 0 8.5352-3.8398 8.5352-8.5352 0-4.6914-3.8398-8.5352-8.5352-8.5352h-8.5352v-8.5352h8.5352c4.6914 0 8.5352-3.8398 8.5352-8.5352 0-4.6914-3.8398-8.5352-8.5352-8.5352h-8.5352v-170.66h8.5352c4.6914 0 8.5352-3.8398 8.5352-8.5352 0-4.6914-3.8398-8.5352-8.5352-8.5352h-8.5352v-8.5352h8.5352c4.6914 0 8.5352-3.8398 8.5352-8.5352 0-4.6914-3.8398-8.5352-8.5352-8.5352h-8.5352v-39.84l-35.668-20.055 61.27-0.33984z"/>
    <path d="m298.67 59.777c0 4.7109-3.8203 8.5312-8.5352 8.5312-4.7109 0-8.5312-3.8203-8.5312-8.5312 0-4.7148 3.8203-8.5352 8.5312-8.5352 4.7148 0 8.5352 3.8203 8.5352 8.5352"/>
    <path d="m298.67 110.98c0 4.7109-3.8203 8.5312-8.5352 8.5312-4.7109 0-8.5312-3.8203-8.5312-8.5312 0-4.7148 3.8203-8.5352 8.5312-8.5352 4.7148 0 8.5352 3.8203 8.5352 8.5352"/>
    <path d="m298.67 401.11c0 4.7109-3.8203 8.5352-8.5352 8.5352-4.7109 0-8.5312-3.8242-8.5312-8.5352s3.8203-8.5352 8.5312-8.5352c4.7148 0 8.5352 3.8242 8.5352 8.5352"/>
    <path d="m298.67 349.91c0 4.7109-3.8203 8.5312-8.5352 8.5312-4.7109 0-8.5312-3.8203-8.5312-8.5312 0-4.7148 3.8203-8.5352 8.5312-8.5352 4.7148 0 8.5352 3.8203 8.5352 8.5352"/>
    <path d="m298.67 162.18c0 4.7148-3.8203 8.5352-8.5352 8.5352-4.7109 0-8.5312-3.8203-8.5312-8.5352 0-4.7109 3.8203-8.5312 8.5312-8.5312 4.7148 0 8.5352 3.8203 8.5352 8.5312"/>
    <path d="m298.67 452.31c0 4.7148-3.8203 8.5352-8.5352 8.5352-4.7109 0-8.5312-3.8203-8.5312-8.5352 0-4.7109 3.8203-8.5312 8.5312-8.5312 4.7148 0 8.5352 3.8203 8.5352 8.5312"/>
    <path d="m349.87 298.71c-4.6914 0-8.5352 3.8398-8.5352 8.5352 0 4.6914 3.8398 8.5352 8.5352 8.5352 18.859 0 34.219-15.359 34.219-34.219v-51.031c0-18.859-15.359-34.219-34.219-34.219-4.6914 0-8.5352 3.8398-8.5352 8.5352 0 4.6914 3.8398 8.5352 8.5352 8.5352 9.4727 0 17.152 7.6797 17.152 17.152v51.031c0 9.3789-7.6797 17.145-17.152 17.145z"/>
    <path d="m349.87 162.18c-4.6914 0-8.5352 3.8398-8.5352 8.5352 0 4.6914 3.8398 8.5352 8.5352 8.5352 28.246 0 51.285 23.039 51.285 51.285v51.031c0 28.246-23.039 51.285-51.285 51.285-4.6914 0-8.5352 3.8398-8.5352 8.5352 0 4.6914 3.8398 8.5352 8.5352 8.5352 37.719 0 68.352-30.633 68.352-68.352v-51.031c0-37.723-30.633-68.359-68.352-68.359z"/>
</svg>