<svg width="50" height="50" version="1.1" viewBox="0 0 512 512" xmlns="http://www.w3.org/2000/svg">
    <path d="m512 34.133h-512v409.6h17.066v34.133h85.332v-34.133h307.2v34.133h85.332v-34.133h17.066zm-426.67 426.67h-51.199v-17.066h51.199zm392.54 0h-51.199v-17.066h51.199zm17.066-34.133h-477.87v-375.47h477.87z"/>
    <path d="m51.285 409.6h409.43c9.4727 0 17.152-7.6797 17.152-17.152v-25.516c4.6914 0 8.5352-3.8398 8.5352-8.5352 0-4.6914-3.8398-8.5352-8.5352-8.5352v-8.5352c4.6914 0 8.5352-3.8398 8.5352-8.5352 0-4.6914-3.8398-8.5352-8.5352-8.5352v-170.66c4.6914 0 8.5352-3.8398 8.5352-8.5352 0-4.6914-3.8398-8.5352-8.5352-8.5352v-8.5352c4.6914 0 8.5352-3.8398 8.5352-8.5352 0-4.6914-3.8398-8.5352-8.5352-8.5352v-25.508c0-9.4727-7.6797-17.152-17.152-17.152h-409.43c-9.4727 0-17.152 7.6797-17.152 17.152v307.03c0 9.4727 7.6797 17.152 17.152 17.152zm0-324.27 409.52 0.085938v25.516h-8.5352c-4.6914 0-8.5352 3.8398-8.5352 8.5352 0 4.6914 3.8398 8.5352 8.5352 8.5352h8.5352v8.5352h-8.5352c-4.6914 0-8.5352 3.8398-8.5352 8.5352 0 4.6914 3.8398 8.5352 8.5352 8.5352h8.5352v170.67h-8.5352c-4.6914 0-8.5352 3.8398-8.5352 8.5352 0 4.6914 3.8398 8.5352 8.5352 8.5352h8.5352v8.5352h-8.5352c-4.6914 0-8.5352 3.8398-8.5352 8.5352 0 4.6914 3.8398 8.5352 8.5352 8.5352h8.5352v25.602l-409.6-0.10547z"/>
    <path d="m388.35 166.83c-0.085937-0.085937-0.085937-0.17188-0.17187-0.25781-0.085938-0.085937-0.17188-0.085937-0.25781-0.17187-18.598-18.43-44.027-29.863-72.188-29.863s-53.59 11.434-72.105 29.781c-0.085937 0.085938-0.17188 0.085938-0.25781 0.17188-0.085938 0.085938-0.085938 0.17188-0.17188 0.25781-18.43 18.598-29.867 44.027-29.867 72.188s11.434 53.59 29.781 72.105c0.085938 0.085938 0.085938 0.17188 0.17188 0.25781 0.085938 0.085937 0.17188 0.085937 0.25781 0.17188 18.602 18.43 44.031 29.863 72.191 29.863s53.59-11.434 72.105-29.781c0.085937-0.085937 0.17188-0.085937 0.25781-0.17188 0.085938-0.085937 0.085938-0.17188 0.17188-0.25781 18.43-18.598 29.863-44.027 29.863-72.188s-11.434-53.59-29.781-72.105zm4.1836 80.637h8.1055c-1.707 17.152-8.5352 32.77-18.859 45.398l-5.7188-5.7188c-3.3281-3.3281-8.7031-3.3281-12.031 0s-3.3281 8.7031 0 12.031l5.7188 5.7188c-12.629 10.324-28.332 17.152-45.398 18.859v-8.0195c0-4.6914-3.8398-8.5352-8.5352-8.5352-4.6914 0-8.5352 3.8398-8.5352 8.5352v8.1055c-17.152-1.707-32.77-8.5352-45.398-18.859l5.7188-5.7188c3.3281-3.3281 3.3281-8.7031 0-12.031-3.3281-3.3281-8.7031-3.3281-12.031 0l-5.7188 5.7188c-10.324-12.629-17.152-28.332-18.859-45.398h7.9414c4.6914 0 8.5352-3.8398 8.5352-8.5352 0-4.6914-3.8398-8.5352-8.5352-8.5352h-8.1055c1.707-17.152 8.5352-32.77 18.859-45.398l5.7188 5.7188c1.707 1.707 3.8398 2.4766 6.0586 2.4766s4.3516-0.85156 6.0586-2.4766c3.3281-3.3281 3.3281-8.7031 0-12.031l-5.7188-5.7188c12.629-10.324 28.332-17.152 45.398-18.859l-0.003906 7.9414c0 4.6914 3.8398 8.5352 8.5352 8.5352 4.6914 0 8.5352-3.8398 8.5352-8.5352v-8.1055c17.152 1.707 32.77 8.5352 45.398 18.859l-5.7188 5.7188c-3.3281 3.3281-3.3281 8.7031 0 12.031 1.707 1.707 3.8398 2.4766 6.0586 2.4766s4.3516-0.85156 6.0586-2.4766l5.7188-5.7188c10.324 12.629 17.152 28.332 18.859 45.398h-8.1094c-4.6914 0-8.5352 3.8398-8.5352 8.5352 0 4.6914 3.8398 8.6133 8.5352 8.6133z"/>
    <path d="m315.73 204.8c-18.859 0-34.133 15.273-34.133 34.133s15.273 34.133 34.133 34.133 34.133-15.273 34.133-34.133-15.273-34.133-34.133-34.133zm0 51.199c-9.3867 0-17.066-7.6797-17.066-17.066 0-9.3867 7.6797-17.066 17.066-17.066s17.066 7.6797 17.066 17.066c0 9.3867-7.6797 17.066-17.066 17.066z"/>
    <path d="m136.54 153.6c-4.6914 0-8.5352 3.8398-8.5352 8.5352v8.5352c-4.6914 0-8.5352 3.8398-8.5352 8.5352 0 4.6914 3.8398 8.5352 8.5352 8.5352v119.46c-4.6914 0-8.5352 3.8398-8.5352 8.5352 0 4.6914 3.8398 8.5352 8.5352 8.5352v8.5352c0 4.6914 3.8398 8.5352 8.5352 8.5352 4.6914 0 8.5352-3.8398 8.5352-8.5352l-0.003906-170.68c0-4.6914-3.8398-8.5312-8.5312-8.5312z"/>
    <path d="m110.93 179.2c0-4.6914-3.8398-8.5352-8.5352-8.5352v-8.5352c0-4.6914-3.8398-8.5352-8.5352-8.5352-4.6914 0-8.5352 3.8398-8.5352 8.5352v170.67c0 4.6914 3.8398 8.5352 8.5352 8.5352 4.6914 0 8.5352-3.8398 8.5352-8.5352v-8.5352c4.6914 0 8.5352-3.8398 8.5352-8.5352 0-4.6914-3.8398-8.5352-8.5352-8.5352v-119.46c4.6953 0 8.5352-3.8398 8.5352-8.5352z"/>
</svg>
