<svg width="50" height="50" version="1.1" viewBox="0 0 512 512" xmlns="http://www.w3.org/2000/svg">
 <path d="m256 512c-50.633 0-100.12-15.012-142.23-43.141-42.098-28.133-74.91-68.113-94.289-114.89-19.375-46.777-24.445-98.254-14.566-147.91 9.8789-49.66 34.258-95.277 70.062-131.08 35.801-35.805 81.418-60.184 131.08-70.062 49.656-9.8789 101.13-4.8086 147.91 14.566 46.777 19.379 86.758 52.191 114.89 94.289 28.129 42.102 43.141 91.594 43.141 142.23-0.078125 67.871-27.074 132.94-75.066 180.93-47.992 47.992-113.06 74.988-180.93 75.066zm0-491.52v0.003907c-62.461-0.003907-122.37 24.812-166.54 68.98-44.168 44.168-68.98 104.07-68.98 166.54-0.003907 62.461 24.812 122.37 68.98 166.54 44.168 44.168 104.07 68.98 166.54 68.98 62.461 0.003907 122.37-24.812 166.54-68.98 44.168-44.168 68.98-104.07 68.98-166.54-0.070312-62.441-24.906-122.3-69.059-166.46-44.152-44.152-104.02-68.988-166.46-69.059z"/>
 <path d="m367.52 340.01c-3.4531 3.9453-9.3281 4.6445-13.617 1.6211-28.703-20.188-62.812-31.289-97.902-31.855-35.09 0.56641-69.199 11.668-97.902 31.859-4.2852 3.0195-10.164 2.3203-13.617-1.625-1.918-2.1758-2.8281-5.0586-2.5-7.9414 0.32812-2.8828 1.8633-5.4883 4.2227-7.1758 32.133-22.742 70.434-35.16 109.8-35.598 39.367 0.4375 77.664 12.855 109.8 35.598 2.3594 1.6875 3.8945 4.293 4.2227 7.1758 0.32812 2.8828-0.58203 5.7656-2.5 7.9414z"/>
 <path d="m195.51 175.98c0 11.109-9.0039 20.113-20.113 20.113-11.105 0-20.109-9.0039-20.109-20.113 0-11.105 9.0039-20.109 20.109-20.109 11.109 0 20.113 9.0039 20.113 20.109"/>
 <path d="m356.71 175.98c0 11.109-9.0039 20.113-20.109 20.113-11.109 0-20.113-9.0039-20.113-20.113 0-11.105 9.0039-20.109 20.113-20.109 11.105 0 20.109 9.0039 20.109 20.109"/>
</svg>
