<svg  width="50" height="50" version="1.1" viewBox="0 0 512 512" xmlns="http://www.w3.org/2000/svg">
    <path d="m495.42 51.199h-91.801l-73.676-41.438-2.4414-1.2266h-2.2344c-5.2578 0-9.5312 4.2734-9.5312 9.5312v474.45c0 5.2539 4.2734 9.5391 9.5312 9.5391l2.7305-0.13672 73.098-41.113h8.5078v34.133h85.332v-34.133h0.48438c9.1406 0 16.582-7.4414 16.582-16.582v-376.44c0-9.1406-7.4414-16.582-16.582-16.582zm-145.55 161.43c-4.7188 0-8.5352-3.8125-8.5352-8.5352 0-4.7188 3.8164-8.5312 8.5352-8.5312 18.875 0 34.227 15.352 34.227 34.227v51.012c0 18.875-15.352 34.227-34.227 34.227-4.7188 0-8.5352-3.8125-8.5352-8.5312s3.8164-8.5352 8.5352-8.5352c9.4531 0 17.16-7.6953 17.16-17.16v-51.012c0-9.4648-7.707-17.16-17.16-17.16zm68.359 68.172c0 37.691-30.668 68.363-68.359 68.363-4.7188 0-8.5352-3.8164-8.5352-8.5352s3.8164-8.5352 8.5352-8.5352c28.277 0 51.293-23.004 51.293-51.293v-51.012c0-28.289-23.016-51.293-51.293-51.293-4.7188 0-8.5352-3.8164-8.5352-8.5352s3.8164-8.5312 8.5352-8.5312c37.691 0 68.359 30.668 68.359 68.359zm59.641 103.2h-25.602c-4.7188 0-8.5312-3.8125-8.5312-8.5352 0-4.7188 3.8125-8.5312 8.5312-8.5312h25.602c4.7188 0 8.5312 3.8125 8.5312 8.5312 0 4.7227-3.8125 8.5352-8.5312 8.5352zm0-25.602h-25.602c-4.7188 0-8.5312-3.8125-8.5312-8.5312s3.8125-8.5352 8.5312-8.5352h25.602c4.7188 0 8.5312 3.8164 8.5312 8.5352s-3.8125 8.5312-8.5312 8.5312zm0-187.73h-25.602c-4.7188 0-8.5312-3.8164-8.5312-8.5352s3.8125-8.5312 8.5312-8.5312h25.602c4.7188 0 8.5312 3.8125 8.5312 8.5312s-3.8125 8.5352-8.5312 8.5352zm0-25.602h-25.602c-4.7188 0-8.5312-3.8125-8.5312-8.5312 0-4.7227 3.8125-8.5352 8.5312-8.5352h25.602c4.7188 0 8.5312 3.8125 8.5312 8.5352 0 4.7188-3.8125 8.5312-8.5312 8.5312z" fill-rule="evenodd"/>
    <path d="m238.93 51.199h-222.35c-9.1406 0-16.582 7.4414-16.582 16.582v376.44c0 9.1406 7.4414 16.582 16.582 16.582h0.48438v34.133h85.332v-34.133h136.54v25.598h68.266v-460.8h-68.266zm0 375.47h-193.31c-11.035 0-20.02-8.9883-20.02-20.02v-301.3c0-11.031 8.9844-20.02 20.02-20.02h193.31zm34.133-380.44c7.0586 0 12.801 5.7422 12.801 12.797 0 7.0586-5.7422 12.801-12.801 12.801s-12.801-5.7422-12.801-12.801c0-7.0547 5.7422-12.797 12.801-12.797zm0 51.199c7.0586 0 12.801 5.7422 12.801 12.801 0 7.0547-5.7422 12.797-12.801 12.797s-12.801-5.7422-12.801-12.797c0-7.0586 5.7422-12.801 12.801-12.801zm0 51.199c7.0586 0 12.801 5.7422 12.801 12.801 0 7.0547-5.7422 12.801-12.801 12.801s-12.801-5.7461-12.801-12.801c0-7.0586 5.7422-12.801 12.801-12.801zm0 187.73c7.0586 0 12.801 5.7422 12.801 12.801 0 7.0547-5.7422 12.797-12.801 12.797s-12.801-5.7422-12.801-12.797c0-7.0586 5.7422-12.801 12.801-12.801zm0 51.199c7.0586 0 12.801 5.7422 12.801 12.801 0 7.0547-5.7422 12.801-12.801 12.801s-12.801-5.7461-12.801-12.801c0-7.0586 5.7422-12.801 12.801-12.801zm0 51.199c7.0586 0 12.801 5.7422 12.801 12.801s-5.7422 12.801-12.801 12.801-12.801-5.7422-12.801-12.801 5.7422-12.801 12.801-12.801z" fill-rule="evenodd"/>
</svg>
