<svg  width="50" height="50" version="1.1" viewBox="0 0 512 512" xmlns="http://www.w3.org/2000/svg">
    <path d="m488.31 180.21h-191.12v-6.7109c0-4.4258-1.9102-8.3906-4.9141-11.195l-31.973-55.461c-2.168-3.7617-6.7148-6.0977-11.867-6.0977l-191.36 0.003906c-5.1523 0-9.6992 2.3359-11.867 6.0977l-31.965 55.453c-3.0078 2.8047-4.918 6.7695-4.918 11.199v222.38c0 8.4688 6.8906 15.359 15.359 15.359h258.14c8.4688 0 15.359-6.8906 15.359-15.359v-6.7148h191.12c8.4688 0 15.359-6.8906 15.359-15.359v-178.24c0-8.4688-6.8906-15.359-15.359-15.359zm-434.23-68.246c0.16406-0.25 1.2148-0.97656 3-0.97656h191.35c1.7852 0 2.8359 0.72656 2.9961 0.97266l26.625 46.18h-250.59zm232.87 283.92c0 2.8242-2.2969 5.1211-5.1211 5.1211h-258.14c-2.8242 0-5.1211-2.2969-5.1211-5.1211v-222.38c0-1.0117 0.37109-1.9023 0.87891-2.6953 0.42578-0.66406 0.97266-1.2031 1.6484-1.6133 0.77344-0.46875 1.625-0.80859 2.5938-0.80859h258.14c0.96875 0 1.8242 0.34375 2.5977 0.8125 0.67188 0.40625 1.2188 0.94922 1.6445 1.6133 0.50781 0.79688 0.87891 1.6836 0.87891 2.6953v6.7109h-6.1367c-4.9648 0-9.3438 2.4062-12.152 6.0742-2.8086-3.668-7.1875-6.0742-12.152-6.0742l-207.5-0.003906c-8.4688 0-15.359 6.8906-15.359 15.359v178.24c0 8.4688 6.8906 15.359 15.359 15.359h207.5c4.9648 0 9.3438-2.4062 12.152-6.0742 2.8086 3.668 7.1875 6.0742 12.152 6.0742h6.1367zm-21.277-146.25v-22.031h9.8008l0.003906 22.031zm9.8047 92.16h-9.8047v-22.035h9.8008zm-81.816 10.551c-24.484 0-38.098-7.6172-38.801-11.836v-6.4648c9.457 5.3945 24.164 8.1836 38.801 8.1836 14.641 0 29.344-2.7891 38.801-8.1836v6.4648c-0.69922 4.2188-14.312 11.836-38.801 11.836zm38.801 2.0547v5.6641c0 4.1367-13.695 12.18-38.801 12.18-25.105 0-38.801-8.0469-38.801-12.18v-5.6641c9.457 5.3945 24.164 8.1836 38.801 8.1836 14.637 0 29.344-2.7891 38.801-8.1836zm-38.801-22.41c-24.484 0-38.098-7.6172-38.801-11.836v-6.4648c9.457 5.3945 24.164 8.1836 38.801 8.1836 14.641 0 29.344-2.7891 38.801-8.1836v6.4648c-0.69922 4.2188-14.312 11.836-38.801 11.836zm0-20.355c-24.484 0-38.098-7.6172-38.801-11.836v-6.4648c9.457 5.3945 24.164 8.1836 38.801 8.1836 14.641 0 29.344-2.7891 38.801-8.1836v6.4648c-0.69922 4.2188-14.312 11.836-38.801 11.836zm0-20.355c-24.484 0-38.098-7.6172-38.801-11.836-0.019531-0.11328-0.066406-0.23438-0.066406-0.34375 0-0.054687 0.027343-0.11328 0.03125-0.16797 0.35156-4.1797 14.012-12.012 38.836-12.012 24.824 0 38.484 7.832 38.836 12.012 0.003906 0.054687 0.03125 0.11328 0.03125 0.16797 0 0.10938-0.046875 0.23047-0.066406 0.34375-0.69922 4.2188-14.312 11.836-38.801 11.836zm-2.1953-81.223c2.2617 0 4.0938 1.832 4.0938 4.0938 0 2.2617-1.832 4.0938-4.0938 4.0938h-12.562v12.566c0 2.2617-1.832 4.0977-4.0938 4.0977-2.2617 0-4.0938-1.8359-4.0938-4.0977v-12.566h-12.566c-2.2617 0-4.0938-1.832-4.0938-4.0938 0-2.2617 1.832-4.0938 4.0938-4.0938h12.566v-12.566c0-2.2617 1.832-4.0938 4.0938-4.0938 2.2617 0 4.0938 1.832 4.0938 4.0938v12.566zm29.531 26.504c2.2617 0 4.0938 1.8359 4.0938 4.0938 0 2.2617-1.832 4.0938-4.0938 4.0938h-8.7773v8.7812c0 2.2461-1.8125 4.0664-4.0586 4.0859-0.011718 0-0.023437 0.007813-0.039062 0.007813-0.078125 0-0.14453-0.039063-0.21875-0.042969-2.1523-0.12109-3.875-1.8672-3.875-4.0508v-8.7812h-8.7773c-2.2617 0-4.0938-1.8359-4.0938-4.0938 0-2.2617 1.832-4.0938 4.0938-4.0938h8.7773v-8.7773c0-2.2617 1.832-4.0938 4.0938-4.0938 2.2617 0 4.0938 1.832 4.0938 4.0938v8.7773zm10.293-17.867v-9.5352h-9.5352c-2.2617 0-4.0938-1.832-4.0938-4.0938s1.832-4.0938 4.0938-4.0938h9.5352v-9.5352c0-0.34766 0.11719-0.65625 0.19531-0.97656 0.44922-1.7773 1.9805-3.1172 3.8984-3.1172 1.9141 0 3.4492 1.3398 3.8984 3.1172 0.082031 0.32031 0.19531 0.62891 0.19531 0.97656v9.5352h9.5352c2.2617 0 4.0938 1.832 4.0938 4.0938s-1.832 4.0938-4.0938 4.0938h-9.5352v9.5352c0 2.2617-1.832 4.0938-4.0938 4.0938-2.2617 0.003906-4.0938-1.832-4.0938-4.0938zm-136.62 133.65c-24.512 0-38.125-7.6328-38.801-11.848v-6.4531c9.457 5.3945 24.164 8.1875 38.801 8.1875 14.637 0 29.344-2.793 38.801-8.1875v6.4531c-0.67578 4.2148-14.289 11.848-38.801 11.848zm38.805 2.0508v5.668c0 4.1367-13.695 12.18-38.801 12.18-25.109 0-38.801-8.0469-38.801-12.18v-5.668c9.457 5.3945 24.164 8.1875 38.801 8.1875s29.34-2.793 38.801-8.1875zm-38.805-22.406c-24.512 0-38.125-7.6328-38.801-11.848v-6.4531c9.457 5.3945 24.164 8.1875 38.801 8.1875 14.637 0 29.344-2.793 38.801-8.1875v6.4531c-0.67578 4.2148-14.289 11.848-38.801 11.848zm0-20.355c-24.512 0-38.125-7.6328-38.801-11.848v-6.4531c9.457 5.3945 24.164 8.1875 38.801 8.1875 14.637 0 29.344-2.793 38.801-8.1875v6.4531c-0.67578 4.2148-14.289 11.848-38.801 11.848zm0-20.355c-24.512 0-38.125-7.6328-38.801-11.848v-6.5586c9.457 5.3945 24.164 8.1875 38.801 8.1875 14.637 0 29.344-2.793 38.801-8.1875v6.5586c-0.67578 4.2148-14.289 11.848-38.801 11.848zm0-20.461c-24.512 0-38.125-7.6328-38.801-11.848-0.015625-0.10938-0.066406-0.22656-0.066406-0.33203 0-0.050781 0.027344-0.10938 0.03125-0.16406 0.33594-4.1797 14.004-12.016 38.836-12.016 24.832 0 38.496 7.8398 38.836 12.016 0.003906 0.050782 0.03125 0.11328 0.03125 0.16406 0 0.10547-0.046875 0.22266-0.066406 0.33203-0.67578 4.2148-14.289 11.848-38.801 11.848zm398.77 103c0 2.8242-2.2969 5.1211-5.1211 5.1211h-207.5c-2.8242 0-5.1211-2.2969-5.1211-5.1211v-21.801c5.543-0.12109 10.02-4.6484 10.02-10.219v-22.035c0-5.5703-4.4766-10.098-10.02-10.219v-49.688c5.543-0.12109 10.02-4.6484 10.02-10.219v-22.031c0-5.5703-4.4766-10.098-10.02-10.219v-21.809c0-2.8242 2.2969-5.1211 5.1211-5.1211h207.5c2.8242 0 5.1211 2.2969 5.1211 5.1211z"/>
</svg>