<svg width="50" height="50"  version="1.1" viewBox="0 0 512 512" xmlns="http://www.w3.org/2000/svg">
    <path d="m512 34.133h-512v409.6h17.066v34.133h85.332v-34.133h307.2v34.133h85.332v-34.133h17.066zm-34.133 93.867h17.066v8.5352h-17.066zm0 25.602h17.066v170.66h-17.066zm0 187.73h17.066v8.5352h-17.066zm17.066 85.336h-477.87v-375.47h477.87v59.734h-17.066v-25.531c0-9.457-7.6797-17.137-17.137-17.137h-409.46c-9.457 0-17.137 7.6797-17.137 17.137v307.06c0 9.457 7.6797 17.137 17.137 17.137h409.46c9.457 0 17.137-7.6797 17.137-17.137v-25.531h17.066zm-76.801-187.73c0 28.125-11.398 53.625-29.816 72.148-0.074218 0.078125-0.10156 0.17969-0.17969 0.25781-0.074219 0.074218-0.17578 0.10156-0.25391 0.17969-18.527 18.414-44.023 29.812-72.148 29.812s-53.625-11.398-72.148-29.812c-0.078126-0.078125-0.17969-0.10547-0.25781-0.17969-0.078125-0.078125-0.10156-0.17969-0.17969-0.25781-18.414-18.523-29.816-44.023-29.816-72.148s11.402-53.625 29.816-72.148c0.078124-0.078125 0.10156-0.17969 0.17969-0.25781 0.078125-0.074219 0.17969-0.10156 0.25781-0.17969 18.523-18.414 44.023-29.812 72.148-29.812s53.621 11.398 72.148 29.812c0.078126 0.078125 0.17969 0.10547 0.25391 0.17969 0.078125 0.078125 0.10547 0.17969 0.17969 0.25781 18.418 18.523 29.816 44.023 29.816 72.148zm-298.67 76.801c0-4.7188 3.8164-8.5352 8.5352-8.5352v-119.46c-4.7188 0-8.5352-3.8164-8.5352-8.5352s3.8164-8.5312 8.5352-8.5312v-8.5352c0-4.7188 3.8125-8.5312 8.5352-8.5312 4.7188 0 8.5312 3.8125 8.5312 8.5312v170.67c0 4.7188-3.8125 8.5312-8.5312 8.5312-4.7227 0-8.5352-3.8125-8.5352-8.5312v-8.5352c-4.7188 0-8.5352-3.8125-8.5352-8.5312zm-8.5312 0c0 4.7188-3.8164 8.5312-8.5352 8.5312v8.5352c0 4.7188-3.8125 8.5312-8.5312 8.5312s-8.5352-3.8125-8.5352-8.5312v-170.67c0-4.7188 3.8164-8.5312 8.5352-8.5312s8.5312 3.8125 8.5312 8.5312v8.5352c4.7188 0 8.5352 3.8125 8.5352 8.5312s-3.8164 8.5352-8.5352 8.5352v119.46c4.7188 0 8.5352 3.8164 8.5352 8.5352z" fill-rule="evenodd"/>
    <path d="m315.73 221.87c-9.4062 0-17.066 7.6523-17.066 17.066 0 9.4102 7.6602 17.066 17.066 17.066 9.4023 0 17.066-7.6562 17.066-17.066 0-9.4141-7.6641-17.066-17.066-17.066" fill-rule="evenodd"/>
    <path d="m376.07 190.66c-1.6641 1.6641-3.8516 2.5-6.0352 2.5-2.1836 0-4.3672-0.83594-6.0312-2.5-3.3281-3.3359-3.3281-8.7383 0-12.066l5.6914-5.6914c-12.648-10.352-28.297-17.16-45.434-18.867v8.0977c0 4.7188-3.8125 8.5352-8.5312 8.5352s-8.5352-3.8164-8.5352-8.5352v-8.0977c-17.133 1.707-32.785 8.5156-45.43 18.867l5.6914 5.6914c3.3281 3.3281 3.3281 8.7305 0 12.066-1.6641 1.6641-3.8477 2.5-6.0352 2.5-2.1836 0-4.3672-0.83594-6.0312-2.5l-5.6914-5.6914c-10.359 12.645-17.16 28.297-18.867 45.43h8.0977c4.7188 0 8.5312 3.8164 8.5312 8.5352s-3.8125 8.5312-8.5312 8.5312h-8.0977c1.707 17.137 8.5078 32.785 18.867 45.434l5.6914-5.6914c3.3281-3.3281 8.7305-3.3281 12.066 0 3.3281 3.3359 3.3281 8.7383 0 12.066l-5.6914 5.6914c12.645 10.352 28.297 17.16 45.43 18.867v-8.0977c0-4.7188 3.8164-8.5352 8.5352-8.5352s8.5312 3.8164 8.5312 8.5352v8.0977c17.137-1.707 32.785-8.5156 45.434-18.867l-5.6914-5.6914c-3.3281-3.3281-3.3281-8.7305 0-12.066 3.3359-3.3281 8.7383-3.3281 12.066 0l5.6914 5.6914c10.348-12.648 17.16-28.297 18.867-45.434h-8.0977c-4.7227 0-8.5352-3.8125-8.5352-8.5312s3.8125-8.5352 8.5352-8.5352h8.0977c-1.707-17.133-8.5195-32.785-18.867-45.43zm-60.34 82.406c-18.824 0-34.133-15.309-34.133-34.133 0-18.824 15.309-34.133 34.133-34.133s34.133 15.309 34.133 34.133c0 18.824-15.309 34.133-34.133 34.133z" fill-rule="evenodd"/>
</svg>
