<svg width="50" height="50" version="1.1" viewBox="0 0 512 512" xmlns="http://www.w3.org/2000/svg">
    <path d="m434.27 140.64-43.086-74.742c-2.5117-4.3477-7.8164-7.0469-13.859-7.0469h-242.66c-6.0469 0-11.359 2.6992-13.859 7.0469l-43.086 74.742c-2.1602 2.6445-3.5117 5.9766-3.5117 9.6523v287.5c0 8.4688 6.8906 15.359 15.359 15.359h332.85c8.4688 0 15.359-6.8906 15.359-15.359l0.003906-287.5c0-3.6758-1.3516-7.0078-3.5117-9.6523zm-299.6-71.551h242.66c2.6758 0 4.5312 1.125 4.9883 1.9219l36.848 63.918h-326.33l36.848-63.922c0.45703-0.79297 2.3086-1.918 4.9883-1.918zm-50.215 368.7v-287.5c0-0.47266 0.14844-0.90234 0.26953-1.3359 0.25781-0.93359 0.71484-1.7656 1.4102-2.4023 0.10156-0.09375 0.23828-0.14844 0.34766-0.23438 0.86719-0.67578 1.9102-1.1484 3.0938-1.1484h332.85c1.1836 0 2.2266 0.46875 3.0938 1.1484 0.10938 0.085938 0.24219 0.14063 0.34375 0.23438 0.69922 0.64062 1.1562 1.4805 1.4141 2.418 0.11719 0.42969 0.26562 0.85156 0.26562 1.3203v287.5c0 2.8242-2.2969 5.1211-5.1211 5.1211h-332.84c-2.8242 0-5.1211-2.2969-5.1211-5.1211zm305.86-274.87h-268.62c-8.4688 0-15.359 6.8906-15.359 15.359v231.52c0 8.4688 6.8906 15.359 15.359 15.359h268.63c8.4688 0 15.359-6.8906 15.359-15.359v-231.52c-0.003906-8.4688-6.8906-15.359-15.363-15.359zm5.1211 246.88c0 2.8242-2.2969 5.1211-5.1211 5.1211h-268.62c-2.8242 0-5.1211-2.2969-5.1211-5.1211v-231.52c0-2.8242 2.2969-5.1211 5.1211-5.1211h268.63c2.8242 0 5.1211 2.2969 5.1211 5.1211zm-135.93-172.55c-17.703 0-33.527 8.1484-43.949 20.883h-74.258c-8.4688 0-15.359 6.8906-15.359 15.359v41.09c0 8.4688 6.8906 15.359 15.359 15.359h74.254c10.422 12.734 26.25 20.883 43.949 20.883 31.312 0 56.785-25.477 56.785-56.789 0.003906-31.309-25.469-56.785-56.781-56.785zm36.301 85.848-5.6445-5.6445c3.9961-5.2227 6.6875-11.473 7.5977-18.297h7.9922c-0.83984 7.6406-3.5234 14.73-7.6133 20.805-0.72656 1.0859-1.5195 2.1211-2.332 3.1367zm-72.605 0c-0.87891-1.0938-1.7148-2.2227-2.4922-3.3945-3.9961-6.0195-6.625-13.012-7.4531-20.547h7.9922c0.91016 6.8242 3.6016 13.078 7.5977 18.297zm0-58.121 5.6406 5.6406c-4 5.2227-6.6875 11.473-7.5977 18.297h-7.9922c0.82812-7.5312 3.4609-14.527 7.4531-20.547 0.78125-1.1641 1.6172-2.293 2.4961-3.3906zm52.418 52.414c-1.2734 0.88281-2.6328 1.6445-4.0469 2.3125-2.1836 1.0312-4.5078 1.7969-6.9492 2.2422-1.6641 0.30469-3.3711 0.48828-5.1211 0.48828s-3.457-0.18359-5.1211-0.48828c-2.4414-0.44531-4.7656-1.2148-6.9492-2.2422-1.4141-0.66797-2.7734-1.4297-4.0469-2.3125-2.8281-1.957-5.2812-4.4102-7.2422-7.2383-2.2422-3.2422-3.8203-6.9688-4.5547-10.992-0.30469-1.6641-0.48828-3.3711-0.48828-5.1211s0.18359-3.457 0.48828-5.1211c0.73828-4.0234 2.3125-7.75 4.5547-10.992 1.957-2.8281 4.4141-5.2812 7.2422-7.2383 1.2734-0.88281 2.6328-1.6445 4.0469-2.3125 2.1836-1.0312 4.5078-1.7969 6.9492-2.2422 1.6641-0.30469 3.3711-0.48828 5.1211-0.48828s3.457 0.18359 5.1211 0.48828c2.4414 0.44531 4.7656 1.2148 6.9492 2.2422 1.4141 0.66797 2.7695 1.4297 4.043 2.3125 2.8281 1.957 5.2812 4.4102 7.2422 7.2383 2.2422 3.2422 3.8203 6.9727 4.5547 10.996 0.30469 1.6641 0.48828 3.3711 0.48828 5.1211s-0.18359 3.457-0.48828 5.1211c-0.73828 4.0234-2.3125 7.75-4.5547 10.992-1.957 2.8242-4.4102 5.2773-7.2383 7.2344zm22.52-28.473h-0.37891c-0.91016-6.8242-3.6016-13.078-7.5977-18.297l5.6445-5.6445c0.81641 1.0156 1.6055 2.0508 2.3359 3.1367 4.0898 6.0742 6.7734 13.168 7.6133 20.805zm-9.5742-31.18-0.39453 0.39453-5.25 5.2461c-2.8086-2.1484-5.9062-3.9258-9.2422-5.2461-2.8672-1.1367-5.9023-1.9297-9.0547-2.3516v-7.9961c9 0.99219 17.227 4.5664 23.941 9.9531zm-34.18-1.9531c-3.1562 0.42188-6.1875 1.2148-9.0586 2.3516-3.3359 1.3203-6.4336 3.0977-9.2422 5.2461l-5.25-5.2461-0.39453-0.39453c6.7148-5.3867 14.941-8.9609 23.941-9.9492zm-23.945 74.555 5.6445-5.6445c2.8086 2.1484 5.9062 3.9258 9.2422 5.25 2.8672 1.1367 5.9023 1.9297 9.0586 2.3516v7.9961c-9-0.99219-17.227-4.5664-23.945-9.9531zm34.184 1.9531c3.1562-0.42188 6.1875-1.2148 9.0547-2.3516 3.3359-1.3203 6.4336-3.0977 9.2422-5.2461l5.6406 5.6406c-6.7148 5.3867-14.941 8.9609-23.941 9.9492zm-123.32-12.59c-2.8242 0-5.1211-2.2969-5.1211-5.1211v-41.09c0-2.8242 2.2969-5.1211 5.1211-5.1211h67.617c-3.9336 7.7188-6.1992 16.426-6.1992 25.664 0 9.2422 2.2656 17.945 6.1992 25.664zm125.52-36.57c0.91016 0.90234 2.1016 1.3438 3.2891 1.332 1.168-0.011719 2.3359-0.45703 3.2305-1.3516 1.7969-1.8047 1.7891-4.7227-0.015625-6.5156-0.60156-0.59766-1.2852-1.125-1.9922-1.625-1.9336-1.3789-4.207-2.3711-6.7031-2.9297-0.30469-0.066407-0.62109-0.10156-0.92969-0.15625v-1.4102c0-0.77344-0.23828-1.4648-0.57031-2.1055-0.76953-1.4688-2.2617-2.5039-4.0352-2.5039-1.7734 0-3.2656 1.0352-4.0352 2.5039-0.33594 0.64062-0.57031 1.332-0.57031 2.1055v1.8086c-0.03125 0.007813-0.0625 0.023438-0.09375 0.03125-2.3633 0.68359-4.4414 1.793-6.1211 3.2383-2.332 2.0117-3.9062 4.625-4.2344 7.6523-0.070312 0.65625-0.046875 1.3203 0 1.9766 0.17578 2.5547 1.1758 5.0781 2.9805 7.2773 1.9062 2.3203 4.5312 4.0234 7.4766 5.0664v8.6406c-1.2461-0.42188-2.3555-1.0234-3.1289-1.793-0.91406-0.91016-2.1094-1.3516-3.2969-1.3359-1.168 0.011719-2.3281 0.46094-3.2148 1.3555-1.7969 1.8047-1.7852 4.7227 0.019532 6.5156 0.83594 0.83203 1.8008 1.5391 2.8242 2.1797 1.9648 1.2305 4.2422 2.0664 6.7031 2.5117 0.03125 0.003907 0.0625 0.011719 0.09375 0.015626v1.4062c0 1.0156 0.39453 1.9062 0.95312 2.668 0.83984 1.1484 2.1289 1.9414 3.6562 1.9414s2.8164-0.79297 3.6562-1.9414c0.55859-0.76172 0.95312-1.6523 0.95312-2.668v-1.7891c0.31641-0.089844 0.625-0.19141 0.92969-0.29688 2.0898-0.71484 3.918-1.7891 5.4258-3.125 2.25-1.9922 3.7734-4.5586 4.0938-7.5234 0.058594-0.52734 0.023438-1.0508 0.011719-1.5781-0.0625-2.75-1.0078-5.4258-2.8398-7.6641-1.8984-2.3125-4.5469-3.9609-7.6211-4.8867v-8.8359c1.2266 0.4375 2.332 1.0391 3.1055 1.8086zm-12.691 3.4844c-0.67578-0.82031-1.0156-1.6992-0.94141-2.4062 0.070312-0.65234 0.55078-1.3008 1.293-1.8672v4.6133c-0.10938-0.11719-0.25-0.21484-0.35156-0.33984zm10.859 16.688c-0.070313 0.65234-0.55078 1.3008-1.293 1.8633v-4.7227c0.16797 0.15625 0.35938 0.29688 0.49609 0.46484 0.42578 0.51953 0.91016 1.3555 0.79688 2.3945z"/>
</svg>