<?xml version="1.0" encoding="UTF-8"?>
<svg width="100" height="100" version="1.1" viewBox="0 0 512 512" xmlns="http://www.w3.org/2000/svg">
 <path d="m343.04 256 141.31-141.31c24.062-24.062 24.062-62.977 0-87.039-24.062-23.551-62.977-23.551-87.039 0l-141.31 141.31-141.31-141.31c-24.062-23.551-62.977-23.551-87.039 0-23.551 24.062-23.551 62.977 0 87.039l141.31 141.31-141.31 141.31c-23.551 24.062-23.551 62.977 0 87.039 24.062 23.551 62.977 23.551 87.039 0l141.31-141.31 141.31 141.31c24.062 24.062 62.977 24.062 87.039 0 23.551-24.062 23.551-62.977 0-87.039z"/>
</svg>
